<svg xmlns="http://www.w3.org/2000/svg" width="28" height="24.11" viewBox="0 0 28 24.11">
  <title>Ресурс 1</title>
  <path d="M24,12.06a8,8,0,0,1-2.29,5.6A.94.94,0,0,1,21,18a1,1,0,0,1-1-1,1,1,0,0,1,.28-.7,6,6,0,0,0,0-8.4A1,1,0,0,1,20,7.15a1,1,0,0,1,.3-.69,1,1,0,0,1,1.4,0A8,8,0,0,1,24,12.06Zm-.32-9.73A1.06,1.06,0,0,0,23,2.06a1,1,0,0,0-.7.31,1,1,0,0,0-.3.72,1,1,0,0,0,.32.7,11.13,11.13,0,0,1,.84,15.71c-.27.29-.55.57-.84.83a1,1,0,0,0,1.26,1.56.47.47,0,0,0,.1-.1,13.12,13.12,0,0,0,.93-18.53Q24.16,2.78,23.68,2.33ZM18,2V22.14a2,2,0,0,1-.3,1,2,2,0,0,1-2.75.68l-.1-.07L6.69,18.06H3a3,3,0,0,1-3-3H0v-6A3,3,0,0,1,.88,7,3,3,0,0,1,3,6.06H6.68L14.85.34a2,2,0,0,1,2.78.54L17.7,1A2,2,0,0,1,18,2ZM6,8.06H3a1,1,0,0,0-.71.29A1,1,0,0,0,2,9.06v6a1,1,0,0,0,.29.71,1,1,0,0,0,.71.29H6ZM16,22.14V2L8,7.58v9l8,5.6Z" style="fill: #fff"/>
</svg>
