<svg xmlns="http://www.w3.org/2000/svg" width="28" height="24.14" viewBox="0 0 28 24.14">
  <title>Ресурс 5</title>
  <path d="M24,12.07a8,8,0,0,1-2.29,5.6A1,1,0,0,1,21,18a1,1,0,0,1-.7-.29A1,1,0,0,1,20,17a1,1,0,0,1,.28-.7,6,6,0,0,0,0-8.4A1,1,0,0,1,20,7.16a1,1,0,0,1,.3-.69,1,1,0,0,1,.7-.29,1,1,0,0,1,.7.29A8,8,0,0,1,24,12.07Zm-.32-9.73A1,1,0,0,0,23,2.07a1,1,0,0,0-.7.31A1,1,0,0,0,22,3.1a1,1,0,0,0,.32.7,11.12,11.12,0,0,1,0,16.54,1,1,0,1,0,1.36,1.46,13.12,13.12,0,0,0,0-19.46ZM18,2V22.15a2,2,0,0,1-.3,1,2,2,0,0,1-2.85.61L6.69,18.07H3a3,3,0,0,1-3-3v-6A3,3,0,0,1,.88,7,3,3,0,0,1,3,6.07H6.68L14.85.35A2,2,0,0,1,17.7,1,2,2,0,0,1,18,2ZM6,8.07H3a1,1,0,0,0-.71.29A1,1,0,0,0,2,9.07v6a1.05,1.05,0,0,0,.29.71,1,1,0,0,0,.71.29H6ZM16,22.15V2L8,7.59v9l8,5.6Z" style="fill: #fff"/>
</svg>
