<svg xmlns="http://www.w3.org/2000/svg" width="56.05" height="52.69" viewBox="0 0 56.05 52.69">
  <title>Ресурс 5</title>
  <g>
    <path d="M38,26.35a7.91,7.91,0,0,1-2.28,5.59,1,1,0,0,1-1.41,0,1.09,1.09,0,0,1-.3-.7,1,1,0,0,1,.28-.71,6,6,0,0,0,0-8.39,1,1,0,0,1-.28-.71,1.09,1.09,0,0,1,.3-.7,1,1,0,0,1,.71-.28,1,1,0,0,1,.7.29A7.91,7.91,0,0,1,38,26.35Zm-.31-9.73a1,1,0,0,0-.72-.27,1,1,0,0,0-.7.31,1,1,0,0,0,.05,1.42,11.13,11.13,0,0,1,2.72,12.79,11.09,11.09,0,0,1-2.72,3.75,1,1,0,0,0,0,1.41,1,1,0,0,0,.69.32,1,1,0,0,0,.72-.27,13.11,13.11,0,0,0,0-19.46ZM32,16.27V36.43a2,2,0,0,1-.29,1,2.05,2.05,0,0,1-.79.73,2.09,2.09,0,0,1-1.05.22,2,2,0,0,1-1-.35l-8.17-5.71H17a3,3,0,0,1-3-3v-6a3,3,0,0,1,3-3h3.69l8.17-5.72a2,2,0,0,1,1-.35,2.05,2.05,0,0,1,1.84,1A2,2,0,0,1,32,16.27ZM20,22.35H17a1,1,0,0,0-.7.29,1,1,0,0,0-.3.71v6a1,1,0,0,0,1,1h3ZM30,36.43V16.27l-8,5.6v9l8,5.6Z" style="fill: #fff"/>
    <path d="M55,1.1,1,51.6" style="fill: none;stroke: #fff;stroke-width: 3px"/>
  </g>
</svg>
